<svg xmlns="http://www.w3.org/2000/svg" viewBox="0 0 800 800" height="800" width="800">
  <circle cx="400" cy="400" r="290" fill="#f5f5f5" />
  <path
    d="M399.29 132.86a265.71 265.71 0 00-265.72 265.71 265.71 265.71 0 00265.72 265.72A265.71 265.71 0 00665 398.57a265.71 265.71 0 00-265.71-265.71zm2.37 46.09c12.66 0 22.86 13.08 22.86 29.33v157.81c0 1.24-.07 2.46-.18 3.66a37.857 37.857 0 0112.38 17.98l105.57 60.95c12.96 7.48 18.29 22.33 11.96 33.3-6.34 10.96-21.86 13.77-34.81 6.29l-98.62-56.93a37.857 37.857 0 01-20.11 5.8 37.857 37.857 0 01-37.85-37.85 37.857 37.857 0 0116.02-30.87c-.05-.77-.08-1.55-.08-2.33V208.28c0-16.25 10.2-29.33 22.86-29.33z"
    fill="#1d161e" />
</svg>